<?xml version="1.0" standalone="no"?>
<!DOCTYPE svg PUBLIC "-//W3C//DTD SVG 20010904//EN"
 "http://www.w3.org/TR/2001/REC-SVG-20010904/DTD/svg10.dtd">
<svg version="1.0" xmlns="http://www.w3.org/2000/svg"
 width="1101.000000pt" height="305.000000pt" viewBox="0 0 1101.000000 305.000000"
 preserveAspectRatio="xMidYMid meet">

<g transform="translate(0.000000,305.000000) scale(0.100000,-0.100000)"
fill="#000000" stroke="none">
<path d="M3424 2542 c-17 -15 -41 -42 -53 -59 -19 -28 -28 -33 -64 -33 -50 0
-52 -1 -102 -63 -21 -27 -51 -55 -67 -63 -16 -8 -32 -23 -36 -34 -7 -18 -137
-120 -154 -120 -10 0 -73 -59 -170 -157 -33 -35 -68 -63 -77 -64 -15 0 -186
-195 -263 -299 -102 -137 -177 -285 -214 -425 -14 -53 -19 -105 -19 -215 0
-134 2 -149 24 -190 127 -239 288 -349 521 -355 58 -2 143 -6 190 -10 84 -7
141 -1 255 30 28 7 87 18 132 24 57 7 113 23 180 52 54 23 135 51 181 64 54
14 102 36 140 62 31 22 77 51 102 66 63 37 154 125 179 175 31 60 51 147 51
218 0 47 -10 89 -40 174 -22 61 -40 121 -40 133 0 20 -195 424 -252 520 -20
35 -26 55 -22 77 5 22 2 31 -10 36 -21 8 -20 20 2 49 10 12 24 40 31 61 11 36
10 44 -14 97 -15 32 -32 56 -38 55 -15 -3 -137 119 -137 137 0 23 -39 47 -107
66 -37 10 -70 18 -73 18 -3 0 -19 -12 -36 -27z m152 -929 c40 -78 84 -159 97
-180 13 -21 30 -64 38 -97 12 -57 12 -60 -15 -110 -27 -50 -34 -55 -166 -124
-182 -95 -223 -108 -435 -138 -222 -32 -327 -30 -401 6 -48 25 -49 26 -46 68
4 65 36 138 102 232 32 47 73 109 91 138 17 30 38 56 46 59 8 3 51 42 96 87
45 44 127 115 182 156 94 71 102 75 125 63 38 -20 87 -16 103 7 8 12 21 18 29
15 8 -3 21 1 28 10 16 19 22 10 126 -192z"/>
<path d="M1210 2524 c-203 -14 -416 -51 -660 -114 -204 -53 -351 -143 -395
-241 l-19 -41 34 -66 c46 -87 144 -191 218 -230 53 -28 62 -30 115 -23 64 9
76 17 91 63 6 17 24 40 39 52 24 18 29 19 37 6 17 -26 11 -69 -25 -176 -19
-57 -35 -117 -35 -133 0 -16 -7 -48 -16 -72 -8 -24 -22 -78 -30 -119 -22 -107
-73 -268 -99 -315 -13 -22 -31 -67 -40 -100 -9 -33 -24 -68 -32 -77 -13 -15
-14 -22 -3 -48 11 -27 10 -33 -6 -51 -9 -11 -21 -43 -25 -72 -5 -45 -3 -59 23
-110 16 -32 26 -62 23 -66 -3 -5 2 -12 11 -15 8 -3 22 -22 30 -41 8 -19 19
-35 24 -35 6 0 27 -15 47 -34 34 -30 44 -34 100 -35 61 -1 63 0 90 37 15 20
28 38 29 40 0 1 39 -18 85 -43 88 -47 145 -58 155 -30 6 14 8 13 19 -1 11 -16
18 -16 104 1 52 10 106 27 124 39 18 12 70 30 117 40 109 23 233 71 390 153
160 83 176 96 267 210 64 81 74 98 68 121 -3 15 -8 46 -10 68 -2 23 -18 75
-35 117 -39 92 -120 183 -259 291 -53 41 -102 84 -108 95 -12 18 -3 31 97 133
125 128 192 225 214 313 19 73 20 104 3 124 -8 9 -19 36 -26 61 -9 30 -28 60
-60 90 -64 62 -133 120 -142 120 -4 0 -27 15 -52 34 -83 63 -92 68 -118 56
-20 -9 -35 -6 -82 14 -32 15 -63 25 -70 25 -7 -1 -100 -8 -207 -15z m185 -465
c-90 -91 -165 -149 -258 -199 l-74 -40 -27 35 c-15 19 -48 49 -74 66 -26 18
-60 43 -75 55 l-28 23 48 25 c114 57 321 103 478 105 l79 1 -69 -71z m135
-736 c30 -8 71 -23 91 -33 31 -16 36 -23 31 -45 -2 -15 -21 -38 -41 -53 -19
-15 -54 -46 -77 -68 -41 -41 -81 -61 -352 -175 -148 -63 -312 -105 -312 -81 0
6 90 261 132 375 6 17 20 29 36 33 15 3 61 15 102 26 180 49 272 54 390 21z"/>
<path d="M6852 2457 c-55 -97 -116 -234 -247 -562 -204 -513 -266 -615 -458
-753 l-45 -32 -19 47 c-32 85 -24 232 26 458 23 105 52 238 63 297 l21 107
-73 101 c-52 72 -84 107 -112 121 -21 11 -57 36 -80 57 l-40 37 -44 -50 c-65
-74 -192 -267 -369 -560 -185 -307 -238 -380 -359 -501 -121 -120 -266 -222
-266 -186 0 23 42 262 60 335 11 48 63 214 115 369 53 156 107 325 121 377
l26 94 -64 61 c-35 34 -76 78 -92 99 -42 55 -113 100 -145 92 -46 -11 -134
-117 -193 -232 -117 -227 -184 -451 -282 -942 l-55 -274 19 -46 c10 -25 45
-103 79 -173 71 -147 101 -178 241 -252 99 -52 135 -56 253 -31 85 18 248 95
342 162 68 49 320 269 379 332 17 17 35 31 40 31 6 0 42 -60 80 -133 142 -272
212 -370 304 -424 38 -22 46 -24 72 -13 17 7 54 12 84 11 47 -1 60 4 112 40
157 109 304 296 447 569 36 69 120 253 187 410 67 157 149 342 182 412 l61
128 -15 79 c-30 152 -106 267 -242 368 -32 23 -61 43 -65 43 -4 0 -26 -33 -49
-73z"/>
<path d="M10369 2509 c-6 -12 -24 -65 -39 -118 -31 -108 -54 -168 -74 -191 -8
-8 -28 -106 -46 -219 -61 -394 -126 -571 -262 -717 -54 -57 -113 -102 -123
-92 -14 14 -26 204 -23 381 3 188 5 213 21 225 9 7 17 24 17 38 0 14 7 41 15
61 8 19 15 53 15 74 0 28 4 39 15 39 18 0 21 65 4 75 -6 5 -4 12 7 20 16 11
16 17 6 53 -29 97 -118 203 -224 268 -60 37 -208 108 -212 102 -2 -2 -38 -79
-81 -173 -43 -93 -141 -300 -218 -460 -77 -159 -202 -418 -277 -574 l-137
-285 14 -35 c8 -19 13 -48 10 -65 -5 -35 76 -228 133 -315 37 -59 90 -108 125
-117 32 -8 117 17 111 32 -2 6 13 17 35 23 43 13 63 41 74 106 4 22 13 50 21
62 8 12 14 39 14 59 0 36 61 164 79 164 4 0 24 36 45 80 20 44 43 80 49 80 7
0 35 -49 64 -108 62 -129 155 -248 272 -349 86 -74 129 -93 208 -93 51 0 127
37 188 92 28 25 60 50 73 57 12 7 22 21 22 34 0 29 14 49 30 45 8 -2 35 33 64
84 28 48 62 98 75 112 16 17 43 83 78 189 44 134 53 174 53 234 0 43 16 156
40 278 22 113 40 214 40 223 0 10 11 29 24 41 27 25 47 69 72 156 24 84 21 98
-55 218 -28 44 -44 59 -71 67 -19 6 -64 35 -100 66 -101 86 -152 108 -171 73z"/>
<path d="M8549 2495 c-3 -2 -131 -22 -285 -44 -155 -22 -332 -54 -395 -71 -63
-17 -161 -42 -219 -56 -246 -60 -334 -98 -382 -164 -18 -25 -18 -29 2 -145 26
-149 42 -199 80 -249 17 -22 30 -44 30 -49 0 -6 -38 -92 -85 -192 -47 -101
-85 -188 -85 -194 0 -6 -13 -23 -30 -38 -17 -15 -30 -36 -30 -50 0 -12 -14
-50 -32 -84 -28 -53 -32 -71 -32 -133 1 -108 43 -348 64 -366 10 -8 25 -29 34
-46 18 -37 63 -77 115 -103 99 -50 365 -67 565 -35 55 9 119 14 142 10 42 -5
319 40 415 68 129 38 220 106 278 207 35 60 37 69 18 69 -8 0 -20 21 -28 47
-11 38 -19 48 -42 54 -16 4 -55 36 -87 70 -39 42 -63 60 -74 56 -8 -3 -68 -17
-133 -31 -65 -14 -135 -32 -155 -40 -22 -10 -67 -16 -110 -16 -40 0 -143 -7
-228 -16 -166 -18 -310 -14 -310 10 0 18 77 173 118 239 l37 59 80 -8 c44 -4
91 -7 105 -6 14 0 82 0 152 1 74 1 149 8 182 16 73 19 173 71 266 137 71 51
75 56 78 96 4 53 -10 78 -48 86 -39 7 -160 121 -160 149 0 19 -5 20 -127 13
-71 -3 -187 -9 -259 -12 -74 -4 -133 -3 -136 2 -3 5 -9 32 -12 59 l-7 50 58
21 c57 22 120 34 198 38 22 1 63 14 90 28 63 33 92 40 293 78 236 44 330 87
395 179 27 38 32 55 32 100 l0 55 -52 30 c-55 33 -116 85 -131 112 -9 15 -12
15 -40 1 -27 -13 -34 -13 -57 -1 -28 14 -48 18 -56 9z"/>
</g>
</svg>
