<?xml version="1.0" encoding="utf-8"?>
<svg xmlns="http://www.w3.org/2000/svg" xmlns:xlink="http://www.w3.org/1999/xlink" version="1.1" style="width:0;height:0;position:absolute;overflow:hidden;">
  <defs>
<symbol viewBox="0 0 256 250" preserveAspectRatio="xMidYMid" aria-labelledby="alzsi-logos-github-icon-title" id="si-logos-github-icon"><title id="alzsi-logos-github-icon-title">logo of github-icon</title><path d="M128.001 0C57.317 0 0 57.307 0 128.001c0 56.554 36.676 104.535 87.535 121.46 6.397 1.185 8.746-2.777 8.746-6.158 0-3.052-.12-13.135-.174-23.83-35.61 7.742-43.124-15.103-43.124-15.103-5.823-14.795-14.213-18.73-14.213-18.73-11.613-7.944.876-7.78.876-7.78 12.853.902 19.621 13.19 19.621 13.19 11.417 19.568 29.945 13.911 37.249 10.64 1.149-8.272 4.466-13.92 8.127-17.116-28.431-3.236-58.318-14.212-58.318-63.258 0-13.975 5-25.394 13.188-34.358-1.329-3.224-5.71-16.242 1.24-33.874 0 0 10.749-3.44 35.21 13.121 10.21-2.836 21.16-4.258 32.038-4.307 10.878.049 21.837 1.47 32.066 4.307 24.431-16.56 35.165-13.12 35.165-13.12 6.967 17.63 2.584 30.65 1.255 33.873 8.207 8.964 13.173 20.383 13.173 34.358 0 49.163-29.944 59.988-58.447 63.157 4.591 3.972 8.682 11.762 8.682 23.704 0 17.126-.148 30.91-.148 35.126 0 3.407 2.304 7.398 8.792 6.14C219.37 232.5 256 184.537 256 128.002 256 57.307 198.691 0 128.001 0zm-80.06 182.34c-.282.636-1.283.827-2.194.39-.929-.417-1.45-1.284-1.15-1.922.276-.655 1.279-.838 2.205-.399.93.418 1.46 1.293 1.139 1.931zm6.296 5.618c-.61.566-1.804.303-2.614-.591-.837-.892-.994-2.086-.375-2.66.63-.566 1.787-.301 2.626.591.838.903 1 2.088.363 2.66zm4.32 7.188c-.785.545-2.067.034-2.86-1.104-.784-1.138-.784-2.503.017-3.05.795-.547 2.058-.055 2.861 1.075.782 1.157.782 2.522-.019 3.08zm7.304 8.325c-.701.774-2.196.566-3.29-.49-1.119-1.032-1.43-2.496-.726-3.27.71-.776 2.213-.558 3.315.49 1.11 1.03 1.45 2.505.701 3.27zm9.442 2.81c-.31 1.003-1.75 1.459-3.199 1.033-1.448-.439-2.395-1.613-2.103-2.626.301-1.01 1.747-1.484 3.207-1.028 1.446.436 2.396 1.602 2.095 2.622zm10.744 1.193c.036 1.055-1.193 1.93-2.715 1.95-1.53.034-2.769-.82-2.786-1.86 0-1.065 1.202-1.932 2.733-1.958 1.522-.03 2.768.818 2.768 1.868zm10.555-.405c.182 1.03-.875 2.088-2.387 2.37-1.485.271-2.861-.365-3.05-1.386-.184-1.056.893-2.114 2.376-2.387 1.514-.263 2.868.356 3.061 1.403z" fill="#161614"/></symbol>
<symbol viewBox="0 0 256 256" preserveAspectRatio="xMidYMid" aria-labelledby="apksi-logos-javascript-title" id="si-logos-javascript"><title id="apksi-logos-javascript-title">logo of javascript</title><path d="M0 0h256v256H0V0z" fill="#F7DF1E"/><path d="M67.312 213.932l19.59-11.856c3.78 6.701 7.218 12.371 15.465 12.371 7.905 0 12.89-3.092 12.89-15.12v-81.798h24.057v82.138c0 24.917-14.606 36.259-35.916 36.259-19.245 0-30.416-9.967-36.087-21.996M152.381 211.354l19.588-11.341c5.157 8.421 11.859 14.607 23.715 14.607 9.969 0 16.325-4.984 16.325-11.858 0-8.248-6.53-11.17-17.528-15.98l-6.013-2.58c-17.357-7.387-28.87-16.667-28.87-36.257 0-18.044 13.747-31.792 35.228-31.792 15.294 0 26.292 5.328 34.196 19.247L210.29 147.43c-4.125-7.389-8.591-10.31-15.465-10.31-7.046 0-11.514 4.468-11.514 10.31 0 7.217 4.468 10.14 14.778 14.608l6.014 2.577c20.45 8.765 31.963 17.7 31.963 37.804 0 21.654-17.012 33.51-39.867 33.51-22.339 0-36.774-10.654-43.819-24.574"/></symbol>
<symbol viewBox="0 0 256 289" preserveAspectRatio="xMidYMid" aria-labelledby="avbsi-logos-nodejs-icon-title" id="si-logos-nodejs-icon"><title id="avbsi-logos-nodejs-icon-title">logo of nodejs-icon</title><path d="M128 288.464c-3.975 0-7.685-1.06-11.13-2.915l-35.247-20.936c-5.3-2.915-2.65-3.975-1.06-4.505 7.155-2.385 8.48-2.915 15.9-7.156.796-.53 1.856-.265 2.65.265l27.032 16.166c1.06.53 2.385.53 3.18 0l105.74-61.217c1.06-.53 1.59-1.59 1.59-2.915V83.08c0-1.325-.53-2.385-1.59-2.915l-105.74-60.953c-1.06-.53-2.385-.53-3.18 0L20.405 80.166c-1.06.53-1.59 1.855-1.59 2.915v122.17c0 1.06.53 2.385 1.59 2.915l28.887 16.695c15.636 7.95 25.44-1.325 25.44-10.6V93.68c0-1.59 1.326-3.18 3.181-3.18h13.516c1.59 0 3.18 1.325 3.18 3.18v120.58c0 20.936-11.396 33.126-31.272 33.126-6.095 0-10.865 0-24.38-6.625l-27.827-15.9C4.24 220.885 0 213.465 0 205.515V83.346C0 75.396 4.24 67.976 11.13 64L116.87 2.783c6.625-3.71 15.635-3.71 22.26 0L244.87 64C251.76 67.975 256 75.395 256 83.346v122.17c0 7.95-4.24 15.37-11.13 19.345L139.13 286.08c-3.445 1.59-7.42 2.385-11.13 2.385zm32.596-84.009c-46.377 0-55.917-21.2-55.917-39.221 0-1.59 1.325-3.18 3.18-3.18h13.78c1.59 0 2.916 1.06 2.916 2.65 2.12 14.045 8.215 20.936 36.306 20.936 22.261 0 31.802-5.035 31.802-16.96 0-6.891-2.65-11.926-37.367-15.372-28.886-2.915-46.907-9.275-46.907-32.33 0-21.467 18.02-34.187 48.232-34.187 33.921 0 50.617 11.66 52.737 37.101 0 .795-.265 1.59-.795 2.385-.53.53-1.325 1.06-2.12 1.06h-13.78c-1.326 0-2.65-1.06-2.916-2.385-3.18-14.575-11.395-19.345-33.126-19.345-24.38 0-27.296 8.48-27.296 14.84 0 7.686 3.445 10.07 36.306 14.31 32.597 4.24 47.967 10.336 47.967 33.127-.265 23.321-19.345 36.571-53.002 36.571z" fill="#539E43"/></symbol>
<symbol viewBox="0 0 256 221" preserveAspectRatio="xMidYMid" aria-labelledby="bfxsi-logos-vue-title" id="si-logos-vue"><title id="bfxsi-logos-vue-title">logo of vue</title><path d="M204.8 0H256L128 220.8 0 0h97.92L128 51.2 157.44 0h47.36z" fill="#41B883"/><path d="M0 0l128 220.8L256 0h-51.2L128 132.48 50.56 0H0z" fill="#41B883"/><path d="M50.56 0L128 133.12 204.8 0h-47.36L128 51.2 97.92 0H50.56z" fill="#35495E"/></symbol>
  </defs>
</svg>
